<svg  xmlns="http://www.w3.org/2000/svg" viewBox="0 0 202.95 74.12">
  <rect fill="#00a550" x="12.35" y="12.35" width="49.41" height="49.41" rx="3.68"/>
  <path fill="white" d="M43.25 30.88V18.53H30.87v12.35H18.53v12.36h12.35v12.35h12.36V43.24h12.35V30.88zm-6.19 6.18a6.18 6.18 0 01-6.18-6.17h12.36a6.18 6.18 0 01-6.18 6.17z"/>
  <path fill="#00a550" d="M76.62 22v13.16h-4V22H68v-3.49h13.27V22 M91.08 29.51V30a3 3 0 010 .44h-8.4a2.08 2.08 0 00.29.89 2.72 2.72 0 00.63.68 3.1 3.1 0 00.86.46 3 3 0 001 .16 3.16 3.16 0 001.54-.37 2.89 2.89 0 001-.87l2.65 1.68a5.3 5.3 0 01-2.15 1.82 7.07 7.07 0 01-3.1.64 7.48 7.48 0 01-2.47-.4 6.19 6.19 0 01-2-1.19A5.47 5.47 0 0179.5 32a7 7 0 010-5.18 5.81 5.81 0 013.3-3.2 6.9 6.9 0 012.47-.44 6.18 6.18 0 012.35.43 5.1 5.1 0 011.84 1.25 5.82 5.82 0 011.2 2 7.81 7.81 0 01.42 2.65zM87.56 28a2.31 2.31 0 00-.56-1.52 2.17 2.17 0 00-1.71-.65 3 3 0 00-1 .17 2.9 2.9 0 00-.82.48 2.38 2.38 0 00-.55.71 2.17 2.17 0 00-.24.85zM110.28 27.12a5.47 5.47 0 00-.66-.09h-.48a2.67 2.67 0 00-1.29.28 2.73 2.73 0 00-.85.69 2.54 2.54 0 00-.45.86 2.65 2.65 0 00-.14.81v5.54h-3.81V23.59h3.68v1.82a3.87 3.87 0 011.3-1.41 3.26 3.26 0 011.88-.56h.46a2 2 0 01.36.08zM100.89 27.12a5.22 5.22 0 00-.66-.09 3.87 3.87 0 00-.48 0 2.67 2.67 0 00-1.29.28 2.73 2.73 0 00-.84.67 2.54 2.54 0 00-.45.86 3 3 0 00-.14.81v5.54h-3.82v-11.6h3.68v1.82a3.76 3.76 0 011.3-1.41 3.29 3.29 0 011.89-.56h.45a2 2 0 01.36.08zM172.78 47.57c-.18 0-.5-.08-.66-.09h-.48a2.8 2.8 0 00-1.29.28 2.61 2.61 0 00-.84.68 2.45 2.45 0 00-.45.86 2.6 2.6 0 00-.14.81v5.53h-3.82V44h3.68v1.82a3.84 3.84 0 011.26-1.45 3.19 3.19 0 011.88-.57 3.44 3.44 0 01.46 0 1.43 1.43 0 01.36.07zM119.4 36.91a9.65 9.65 0 01-.78 1.61 4.85 4.85 0 01-1 1.21 4 4 0 01-1.4.76 6.27 6.27 0 01-1.89.25 10.6 10.6 0 01-1.11-.06 7 7 0 01-1-.19l.42-3.21a4.7 4.7 0 00.62.15 3.49 3.49 0 00.61.06 1.72 1.72 0 001.28-.41 3.3 3.3 0 00.68-1.15l.37-1-4.86-11.4h4.23l2.6 7.47h.07l2.39-7.45h4.05zM156.81 35.16v-6.28a5.49 5.49 0 00-.07-.93 2.05 2.05 0 00-.26-.78 1.52 1.52 0 00-.53-.54 1.61 1.61 0 00-.84-.2 1.82 1.82 0 00-1.53.71 2.84 2.84 0 00-.58 1.76v6.26h-3.81V18.51H153V25h.05a3.58 3.58 0 011.26-1.25 3.8 3.8 0 012.07-.54 4.28 4.28 0 012 .42 3.84 3.84 0 011.3 1.08 4.36 4.36 0 01.72 1.52 6.82 6.82 0 01.22 1.72v7.17zM92.61 55.61v-6.28a7 7 0 00-.07-.93 2.4 2.4 0 00-.27-.78 1.45 1.45 0 00-1.36-.73 1.8 1.8 0 00-1.54.71 2.86 2.86 0 00-.53 1.75v6.26H85V39.14h3.82v6.35a3.82 3.82 0 013.33-1.79 4.25 4.25 0 012 .42 3.75 3.75 0 011.3 1.08 4.18 4.18 0 01.73 1.53 7.18 7.18 0 01.22 1.72v7.16zM167 20.48a2.09 2.09 0 01-.17.83 2.21 2.21 0 01-.47.66 2.09 2.09 0 01-.7.44 2.22 2.22 0 01-.85.16 2.14 2.14 0 01-1.56-.61 2 2 0 01-.62-1.48 2 2 0 01.62-1.47 3 3 0 01.7-.45 2.06 2.06 0 01.86-.17 2.22 2.22 0 01.85.16 2.25 2.25 0 01.7.44 2.21 2.21 0 01.47.66 2.12 2.12 0 01.17.83zm-4 14.68V23.57h3.81v11.59zM174.29 26.67v3.92a2 2 0 00.32 1.23 1.35 1.35 0 001.13.4 4.18 4.18 0 00.59 0 2 2 0 00.52-.14l.05 3.05a6.59 6.59 0 01-1 .25 8.23 8.23 0 01-1.21.1 5.73 5.73 0 01-1.95-.29 3.14 3.14 0 01-1.27-.84 3.3 3.3 0 01-.69-1.31 6.3 6.3 0 01-.21-1.69v-4.68h-1.86v-3.1h1.84v-3.05h3.74v3.05H177v3.1zM190.39 29.51V30a3 3 0 010 .44H182a2.08 2.08 0 00.29.89 2.72 2.72 0 00.63.68 3 3 0 00.86.46 3 3 0 001 .16 3.16 3.16 0 001.54-.34 2.89 2.89 0 001-.87l2.65 1.68a5.3 5.3 0 01-2.15 1.82 7.08 7.08 0 01-3.11.64 7.42 7.42 0 01-2.46-.4 6.09 6.09 0 01-2-1.19 5.47 5.47 0 01-1.44-1.97 7 7 0 010-5.18 5.75 5.75 0 011.32-1.95 6 6 0 012-1.25 6.86 6.86 0 012.47-.44 6.22 6.22 0 012.35.43 5.19 5.19 0 011.84 1.25 5.65 5.65 0 011.19 2 7.57 7.57 0 01.41 2.65zM186.87 28a2.31 2.31 0 00-.57-1.56 2.17 2.17 0 00-1.71-.65 3 3 0 00-1 .17 2.9 2.9 0 00-.82.48 2.41 2.41 0 00-.56.71 2.34 2.34 0 00-.21.85zM80.55 55.32a8.79 8.79 0 01-3.7.74 9.58 9.58 0 01-3.52-.63 8.11 8.11 0 01-4.67-4.54 9.73 9.73 0 010-7.12A7.93 7.93 0 0170.57 41a8.4 8.4 0 012.84-1.74 10 10 0 013.51-.6 9.93 9.93 0 013.43.61 6.68 6.68 0 012.74 1.81l-2.7 2.7a3.2 3.2 0 00-1.47-1.14 4.8 4.8 0 00-1.86-.38 4.64 4.64 0 00-1.92.39 4.45 4.45 0 00-1.5 1.06 5 5 0 00-1 1.59 5.66 5.66 0 00-.35 2 5.84 5.84 0 00.35 2 5 5 0 001 1.6 4.33 4.33 0 001.48 1 4.64 4.64 0 001.88.5 4.39 4.39 0 002.07-.46 4.11 4.11 0 001.42-1.21l2.77 2.6a7.85 7.85 0 01-2.71 1.99zM110.43 50v.46a3.19 3.19 0 010 .45H102a2 2 0 00.29.88 2.76 2.76 0 00.63.69 3.2 3.2 0 00.86.45 3 3 0 001 .16 3.28 3.28 0 001.54-.33 3 3 0 001-.88l2.68 1.64a5.4 5.4 0 01-2.15 1.83 7.23 7.23 0 01-3.11.64 7.43 7.43 0 01-2.46-.41 5.93 5.93 0 01-2-1.19 5.47 5.47 0 01-1.37-1.92 6.48 6.48 0 01-.5-2.6 6.4 6.4 0 01.49-2.57 5.65 5.65 0 013.3-3.2 6.65 6.65 0 012.47-.45 6.42 6.42 0 012.35.43 5.32 5.32 0 011.84 1.25 5.6 5.6 0 011.19 2 7.51 7.51 0 01.38 2.67zm-3.52-1.47a2.31 2.31 0 00-.57-1.56 2.17 2.17 0 00-1.71-.65 2.8 2.8 0 00-1 .18 2.66 2.66 0 00-.82.47 2.55 2.55 0 00-.56.71 2.4 2.4 0 00-.23.85zM126.74 55.61v-6.33a5.78 5.78 0 00-.07-.94 2.24 2.24 0 00-.25-.78 1.44 1.44 0 00-.49-.52 1.47 1.47 0 00-.81-.2 1.57 1.57 0 00-.83.21 1.89 1.89 0 00-.6.56 2.52 2.52 0 00-.35.8 3.67 3.67 0 00-.11.94v6.26h-3.66V49a2.83 2.83 0 00-.39-1.59 1.39 1.39 0 00-1.23-.58 1.58 1.58 0 00-1.38.72 3 3 0 00-.49 1.77v6.28h-3.68V44h3.54v1.6a3.39 3.39 0 01.51-.72 3.25 3.25 0 01.74-.62 4.52 4.52 0 011-.43 4.47 4.47 0 013.26.35 3.18 3.18 0 011.25 1.47 4.22 4.22 0 011.47-1.44 4.07 4.07 0 012.16-.54 3.67 3.67 0 011.87.43 3.73 3.73 0 011.27 1.12 4.61 4.61 0 01.69 1.53 6.5 6.5 0 01.22 1.67v7.16zM146.76 55.61v-6.33a5.78 5.78 0 00-.07-.94 2.24 2.24 0 00-.25-.78A1.44 1.44 0 00146 47a1.52 1.52 0 00-.81-.2 1.57 1.57 0 00-.83.21 1.89 1.89 0 00-.6.56 2.52 2.52 0 00-.35.8 3.67 3.67 0 00-.11.94v6.26h-3.66V49a2.83 2.83 0 00-.39-1.59 1.39 1.39 0 00-1.23-.58 1.56 1.56 0 00-1.38.72 3 3 0 00-.49 1.77v6.28h-3.68V44H136v1.6a3.85 3.85 0 01.52-.72 3.25 3.25 0 01.74-.62 4.52 4.52 0 011-.43 4.47 4.47 0 013.26.35 3.3 3.3 0 011.25 1.47 4.28 4.28 0 011.46-1.44 4.13 4.13 0 012.17-.54 3.64 3.64 0 013.13 1.55 4.63 4.63 0 01.7 1.53 7 7 0 01.22 1.67v7.16zM152.59 45.61a6.84 6.84 0 012.41-1.47 8.31 8.31 0 012.78-.49 7.47 7.47 0 012.48.36 3.85 3.85 0 011.64 1.12 4.86 4.86 0 01.9 1.87 11.48 11.48 0 01.29 2.73v5.84h-3.49v-1.19h-.07a2.94 2.94 0 01-1.34 1.12 4.8 4.8 0 01-1.94.39 6.19 6.19 0 01-1.45-.18 4.4 4.4 0 01-1.36-.61 3.22 3.22 0 01-1-1.12 3.45 3.45 0 01-.39-1.72 2.91 2.91 0 01.68-2 4.57 4.57 0 011.77-1.19 9.57 9.57 0 012.41-.56 25.39 25.39 0 012.58-.14v-.18a1.42 1.42 0 00-.6-1.27 2.64 2.64 0 00-1.49-.41 3.71 3.71 0 00-1.57.35 4.64 4.64 0 00-1.29.84zm7 5h-.49c-.42 0-.84 0-1.27.06a5.77 5.77 0 00-1.14.22 2.07 2.07 0 00-.82.48 1.1 1.1 0 00-.33.83 1 1 0 00.15.56 1.34 1.34 0 00.38.37 1.83 1.83 0 00.54.2 4 4 0 00.58 0 2.34 2.34 0 001.78-.64 2.38 2.38 0 00.63-1.69zM138.05 18.51l3.1 10.96h.07l2.61-10.96h3.93l-4.41 16.65h-3.96l-3.26-11.14-3.25 11.14h-3.96l-4.42-16.65h3.94l2.6 10.96h.07l3.11-10.96h3.83zM179.88 47.12V51a2 2 0 00.32 1.23 1.35 1.35 0 001.13.41 4.27 4.27 0 00.59 0 2 2 0 00.52-.14l.05 3a5.58 5.58 0 01-1 .25 7.06 7.06 0 01-1.21.1 5.59 5.59 0 01-2-.29 2.92 2.92 0 01-1.26-.84 3.26 3.26 0 01-.69-1.3 6.38 6.38 0 01-.21-1.7v-4.6h-1.82V44h1.84v-3h3.74v3h2.73v3.09zM183.8 54.38a1.48 1.48 0 01.12-.59 1.43 1.43 0 01.33-.47 1.27 1.27 0 01.47-.32 1.49 1.49 0 011.17 0 1.27 1.27 0 01.47.32 1.43 1.43 0 01.33.47 1.67 1.67 0 01.11.59 1.62 1.62 0 01-.11.58 1.58 1.58 0 01-.33.48 1.56 1.56 0 01-.47.32 1.49 1.49 0 01-1.17 0 1.56 1.56 0 01-.47-.32 1.58 1.58 0 01-.33-.48 1.43 1.43 0 01-.12-.58zm.27 0a1.12 1.12 0 00.1.48 1.2 1.2 0 00.65.65 1.2 1.2 0 001 0 1.2 1.2 0 00.4-.26 1.16 1.16 0 00.26-.39 1.2 1.2 0 000-1 1.31 1.31 0 00-.26-.4 1.2 1.2 0 00-.4-.26 1.2 1.2 0 00-1 0 1.16 1.16 0 00-.39.26 1.31 1.31 0 00-.26.4 1.12 1.12 0 00-.1.52zm.66-.87h.66a.67.67 0 01.46.13.53.53 0 01.15.36.41.41 0 01-.11.33.53.53 0 01-.29.14l.44.72h-.33l-.43-.7H185v.7h-.31zm.31.75h.38a.28.28 0 00.13 0 .22.22 0 00.09-.07.21.21 0 000-.14.18.18 0 000-.13.16.16 0 00-.09-.07.28.28 0 00-.13 0H185z"/>
</svg>
